<?xml version="1.0" encoding="UTF-8"?><svg id="Calque_2" xmlns="http://www.w3.org/2000/svg" xmlns:xlink="http://www.w3.org/1999/xlink" viewBox="0 0 111.52 111.52"><defs><style>.cls-1{fill:#4a37f6;}.cls-2{fill:#ff00e2;}.cls-3{stroke-linecap:round;}.cls-3,.cls-4{fill:none;}.cls-3,.cls-4,.cls-5{stroke:#2001b0;stroke-miterlimit:10;}.cls-6{fill:#e2ee4c;}.cls-5,.cls-7{fill:#ececec;}.cls-8{clip-path:url(#clippath);}</style><clipPath id="clippath"><path class="cls-2" d="M82.62,87.41H28.9c-2.76,0-4.52-2.96-3.2-5.39,5.79-10.65,17.08-17.87,30.06-17.87s24.26,7.22,30.06,17.87c1.32,2.43-.43,5.39-3.2,5.39Z"/></clipPath></defs><g id="ICONES"><circle class="cls-1" cx="55.76" cy="55.76" r="55.76"/><path class="cls-7" d="M32.27,49.47l-.95-2.04-2-1.18c-.45-.26-.45-.91,0-1.17l2-1.18.95-2.04c.24-.52.99-.52,1.23,0l.95,2.04,2,1.18c.45.26.45.91,0,1.17l-2,1.18-.95,2.04c-.24.52-.99.52-1.23,0Z"/><path class="cls-7" d="M86.37,26.92l-.53-1.13-1.16-.68c-.38-.22-.38-.78,0-1l1.16-.68.53-1.13c.21-.45.84-.45,1.05,0l.53,1.13,1.16.68c.38.22.38.78,0,1l-1.16.68-.53,1.13c-.21.45-.84.45-1.05,0Z"/><path class="cls-2" d="M82.62,87.41H28.9c-2.76,0-4.52-2.96-3.2-5.39,5.79-10.65,17.08-17.87,30.06-17.87s24.26,7.22,30.06,17.87c1.32,2.43-.43,5.39-3.2,5.39Z"/><g class="cls-8"><path class="cls-3" d="M72.35,77.04c0,1.99-1.61,3.61-3.61,3.61s-3.61-1.61-3.61-3.61c0-1.02.43-1.94,1.11-2.6"/><circle class="cls-4" cx="56.47" cy="69.48" r="1.08"/><path class="cls-3" d="M35.78,84.82c-.36-.8-.56-1.69-.56-2.62,0-3.55,2.87-6.42,6.42-6.42s6.42,2.87,6.42,6.42c0,2.15-1.05,4.05-2.67,5.21"/></g><path class="cls-6" d="M72.36,40.58c-6.63-.26-13.26,6.78-19.89,4.82-2.1-.58-3.82-3.96-3.82-6.06v-10.99c0-2.1,1.72-2.15,3.82-1.58,6.63,1.96,13.26-5.08,19.89-4.82,3.92-.05,7.47,3.65,5.16,4.32-1.36.08-6,4.16-6.41,4.99.11-.02,4.97,5.41,6.41,8.7,2.07,4.15-1.48.51-5.16.6Z"/><rect class="cls-5" x="46.59" y="24.71" width="3.44" height="44.03" rx="1.72" ry="1.72"/><path class="cls-7" d="M68.28,60.87l-.69-1.48-1.48-.87c-.38-.22-.38-.78,0-1l1.48-.87.69-1.48c.21-.45.84-.45,1.05,0l.69,1.48,1.48.87c.38.22.38.78,0,1l-1.48.87-.69,1.48c-.21.45-.84.45-1.05,0Z"/></g></svg>