<?xml version="1.0" encoding="UTF-8"?>
<svg id="Calque_1" xmlns="http://www.w3.org/2000/svg" xmlns:xlink="http://www.w3.org/1999/xlink" version="1.1" viewBox="0 0 1920 1080">
  <!-- Generator: Adobe Illustrator 29.1.0, SVG Export Plug-In . SVG Version: 2.1.0 Build 142)  -->
  <defs>
    <style>
      .st0 {
        fill: none;
      }

      .st1 {
        fill: #4a37f6;
      }

      .st2 {
        fill: #e2ee4c;
      }

      .st3 {
        clip-path: url(#clippath);
      }

      .st4 {
        fill: #ececec;
      }
    </style>
    <clipPath id="clippath">
      <path class="st0" d="M810.7,256.9v426.3c0,4.7,3.8,8.5,8.5,8.5h424.7c4.7,0,8.5-3.8,8.5-8.5v-426.3c0-4.7-3.8-8.5-8.5-8.5h-424.7c-4.7,0-8.5,3.8-8.5,8.5h0ZM1105.5,606.3c0,4.2-3.1,7.7-7.2,8.4-8.1,1.2-16.1,1.9-23.9,1.9s-13.2-.5-19.5-1.4c-4.2-.6-7.3-4.2-7.3-8.4v-2.3c0-4.7,3.8-8.5,8.5-8.5h40.9c4.7,0,8.5,3.8,8.5,8.5v1.8h0Z"/>
    </clipPath>
  </defs>
  <rect class="st1" width="1920" height="1080"/>
  <path class="st4" d="M412.7,649.6c-6.8,0-12.8.3-18.2.8s-9.9,1.9-13.7,4c-3.7,2.1-6.6,5.2-8.6,9.4-2,4.2-3,9.8-3,17h0c0,4.7,3.8,8.5,8.5,8.5h151.2c4.7,0,8.5,3.8,8.5,8.5v31.7c0,4.7-3.8,8.5-8.5,8.5h-151.2c-4.7,0-8.5,3.8-8.5,8.5v74.2c0,4.7-3.8,8.5-8.5,8.5h-41c-4.7,0-8.5-3.8-8.5-8.5v-144.8c0-11.7,1.6-22.2,4.9-31.5,3.3-9.3,8.8-17.1,16.5-23.5,7.7-6.4,17.9-11.2,30.6-14.6,12.7-3.4,28.5-5.1,47.4-5.1h119.4c4.7,0,8.5,3.8,8.5,8.5v31.7c0,4.7-3.8,8.5-8.5,8.5h-117.5Z"/>
  <path class="st4" d="M806.1,455.6c0,19.2-2.8,36.2-8.5,50.9-5.6,14.7-13.7,27-24.2,36.9-10.5,9.9-23.2,17.3-38.2,22.4-15,5-31.8,7.6-50.4,7.6s-35.5-2.5-50.6-7.6-27.9-12.5-38.5-22.4-18.7-22.2-24.5-36.9c-5.7-14.7-8.6-31.7-8.6-50.9s2.9-36.2,8.6-50.9c5.7-14.7,13.9-27,24.5-36.9,10.6-9.9,23.4-17.3,38.5-22.4s31.9-7.6,50.6-7.6,35.5,2.5,50.4,7.6c15,5,27.7,12.5,38.2,22.4,10.5,9.9,18.6,22.2,24.2,36.9,5.6,14.7,8.5,31.7,8.5,50.9ZM757.3,455.6c0-8.4-1.1-16.7-3.2-25s-5.9-15.8-11.3-22.4-12.8-12-22.2-16.1c-9.4-4.1-21.3-6.2-35.8-6.2s-18.3,1-25.6,2.9-13.8,4.5-19.1,7.9-9.9,7.3-13.5,11.8c-3.6,4.5-6.5,9.3-8.7,14.5s-3.7,10.5-4.6,16.1-1.4,11.1-1.4,16.5.5,11.1,1.4,16.8c.9,5.6,2.5,11,4.6,16.2s5.1,10,8.7,14.4c3.6,4.5,8.2,8.3,13.5,11.6s11.8,5.9,19.1,7.8,15.9,2.8,25.6,2.8c14.5,0,26.4-2.1,35.8-6.2,9.4-4.1,16.8-9.5,22.2-16.1s9.2-14.1,11.3-22.4c2.1-8.3,3.2-16.6,3.2-25h0Z"/>
  <path class="st4" d="M518.1,561.2c-7.2,2.6-14.6,4.9-22.2,6.8s-15.7,3.3-24.2,4.3c-8.5,1-17.6,1.5-27.3,1.5-20.6,0-39.6-2.4-57-7.3-17.3-4.9-32.3-12.2-44.8-22.1-12.5-9.8-22.3-22.1-29.2-36.8-7-14.7-10.5-31.9-10.5-51.5s3.5-36.8,10.5-51.5c7-14.7,16.7-27,29.2-36.8,12.5-9.8,27.5-17.2,44.8-22.1,17.3-4.9,36.3-7.3,57-7.3s18.8.5,27.3,1.5c8.5,1,16.6,2.4,24.2,4.3,7.7,1.9,15.1,4.1,22.2,6.8,5.5,2,10.9,4.1,16.2,6.5,3.1,1.4,5.1,4.4,5.1,7.8v34.3c0,6.4-6.9,10.5-12.5,7.4-1.7-.9-3.4-1.9-5.1-2.8-6.2-3.3-13-6.3-20.5-9-7.5-2.7-15.7-4.8-24.6-6.5-8.9-1.7-19-2.5-30.2-2.5-17.2,0-31.5,2-42.8,5.9-11.4,3.9-20.4,9.1-27.2,15.6s-11.5,14-14.3,22.4-4.1,17.1-4.1,26.1.6,11.9,1.8,17.7,3.1,11.3,5.9,16.4c2.8,5.2,6.3,9.9,10.8,14.2s9.9,8.1,16.5,11.2,14.3,5.6,23.1,7.4,18.9,2.7,30.4,2.7,21.3-.8,30.2-2.4,17.1-3.7,24.6-6.3c7.5-2.6,14.3-5.6,20.5-8.9,1.7-.9,3.4-1.9,5.1-2.8,5.6-3.1,12.6.9,12.6,7.4v34.1c0,3.4-2,6.4-5.1,7.8-5.4,2.3-10.8,4.5-16.2,6.5h0Z"/>
  <path class="st4" d="M807.7,710.8c0,19.2-2.8,36.2-8.5,50.9-5.6,14.7-13.7,27-24.2,36.9-10.5,9.9-23.2,17.3-38.2,22.4-15,5-31.8,7.6-50.4,7.6s-35.5-2.5-50.6-7.6-27.9-12.5-38.5-22.4c-10.6-9.9-18.7-22.2-24.5-36.9-5.7-14.7-8.6-31.7-8.6-50.9s2.9-36.2,8.6-50.9c5.7-14.7,13.9-27,24.5-36.9,10.6-9.9,23.4-17.3,38.5-22.4,15-5,31.9-7.6,50.6-7.6s35.5,2.5,50.4,7.6,27.7,12.5,38.2,22.4c10.5,9.9,18.6,22.2,24.2,36.9,5.6,14.7,8.5,31.7,8.5,50.9ZM758.9,710.8c0-8.4-1.1-16.7-3.2-25s-5.9-15.8-11.3-22.4-12.8-12-22.2-16.1c-9.4-4.1-21.3-6.2-35.8-6.2s-18.3,1-25.6,2.8c-7.4,1.9-13.8,4.5-19.1,7.9-5.4,3.4-9.9,7.3-13.5,11.8-3.6,4.5-6.5,9.3-8.7,14.5s-3.7,10.5-4.6,16.1c-.9,5.6-1.4,11.1-1.4,16.5s.5,11.1,1.4,16.8c.9,5.6,2.5,11,4.6,16.2,2.2,5.2,5.1,10,8.7,14.4,3.6,4.5,8.2,8.3,13.5,11.6s11.8,5.9,19.1,7.8,15.9,2.8,25.6,2.8c14.5,0,26.4-2.1,35.8-6.2,9.4-4.1,16.8-9.5,22.2-16.1s9.2-14.1,11.3-22.4c2.1-8.3,3.2-16.6,3.2-25Z"/>
  <path class="st4" d="M1617.2,710.5c0,14.3-1.6,27-4.7,38.2s-7.6,20.8-13.3,29.1c-5.7,8.2-12.5,15.2-20.5,21s-16.8,10.4-26.6,13.8c-9.8,3.5-20.3,6-31.6,7.6-11.3,1.6-23.1,2.4-35.3,2.4h-133.5c-4.7,0-8.5-3.8-8.5-8.5v-206.8c0-4.7,3.8-8.5,8.5-8.5h133.2c12.3,0,24,.8,35.3,2.4,11.3,1.6,21.8,4.1,31.7,7.6,9.8,3.5,18.8,8.1,26.8,13.8s14.9,12.7,20.6,21c5.7,8.3,10.1,18,13.3,29.1s4.7,23.7,4.7,37.9h0ZM1556.3,710.5c0-10.7-1.4-20.1-4.2-28s-7.2-14.5-13.3-19.6-14.1-9-24-11.6c-9.9-2.5-21.9-3.8-36.1-3.8h-66.6c-4.7,0-8.5,3.8-8.5,8.5v109.4c0,4.7,3.8,8.5,8.5,8.5h66.6c14.2,0,26.3-1.3,36.1-3.8s17.9-6.5,24-11.7c6.1-5.3,10.6-11.9,13.3-19.8,2.8-7.9,4.2-17.3,4.2-28h0Z"/>
  <path class="st2" d="M827.4,538.3c-57.9-150.9,169.1-296.3,267-150.9,22.8,37.2,15,78.7-1.5,118.1-9.1,18.6-3.2,35,17.9,36.1.4,0,.7,0,1.1,0,67.9-4.4,103.4-78.6,111.4-140.6,0-.2,0-.5.1-.7,6.6-30.1,18.7,25.8,19,34.9,0,.4,0,.8.1,1.2,28.1,142.6-206.3,253.7-276.9,108.4-15.8-34.3-13.4-69.9,3.5-103.7,0-.2.2-.4.3-.5,12.1-20.6,7.2-36.2-19.1-38.3-.4,0-.8,0-1.2,0-67.7,3.8-98.2,72.3-108,133.2-1.6,12.3-7.6,18.2-13.1,4.3l-.6-1.4h0Z"/>
  <path class="st2" d="M1085.4,678.2c-154.6,47.2-283.8-189.4-131.9-276.9,38.7-20.1,79.6-9.5,117.8,9.7,17.9,10.3,34.7,5.6,37.2-15.3,0-.4,0-.7,0-1.1.3-68.1-71.2-108.6-132.5-121-.2,0-.5-.1-.7-.2-29.6-8.7,27-16.8,36.2-16.5.4,0,.8,0,1.2,0,144.3-18.1,238.6,223.5,88.8,283.8-35.3,13.4-70.7,8.5-103.2-10.7-.2,0-.3-.2-.5-.3-19.7-13.5-35.6-9.7-39.5,16.4,0,.4,0,.8,0,1.2-1,67.8,65.2,103,125.3,117,12.1,2.4,17.6,8.8,3.4,13.4l-1.5.5h0Z"/>
  <rect class="st1" x="1011.6" y="420.5" width="26.5" height="34.5" rx="10.8" ry="10.8" transform="translate(-44.6 124.4) rotate(-6.8)"/>
  <rect class="st1" x="1057.5" y="415" width="26.5" height="34.5" rx="10.8" ry="10.8" transform="translate(-43.7 129.8) rotate(-6.8)"/>
  <path class="st1" d="M900.1,353.5l-1.3-1.5c-1.1-1.2-2.5-2.1-4-2.6l-2-.6c-6.4-1.9-8.2-10.1-3.1-14.5l1.5-1.3c1.2-1.1,2.1-2.5,2.6-4l.6-2c1.9-6.4,10.1-8.2,14.5-3.1l1.3,1.5c1.1,1.2,2.5,2.1,4,2.6l2,.6c6.4,1.9,8.2,10.1,3.1,14.5l-1.5,1.3c-1.2,1.1-2.1,2.5-2.6,4l-.6,2c-1.9,6.4-10.1,8.2-14.5,3.1Z"/>
  <path class="st1" d="M1192.7,576.6l-1.3-1.5c-1.1-1.2-2.4-2.1-4-2.6l-2-.6c-6.4-1.9-8.2-10.1-3.1-14.5l1.6-1.3c1.2-1.1,2.1-2.5,2.6-4l.6-2c1.9-6.4,10.1-8.2,14.5-3.1l1.3,1.5c1.1,1.2,2.4,2.1,4,2.6l2,.6c6.4,1.9,8.2,10.1,3.1,14.5l-1.6,1.3c-1.2,1.1-2.1,2.5-2.6,4l-.6,2c-1.9,6.4-10.1,8.2-14.5,3.1Z"/>
  <path class="st4" d="M1041.1,793.5c-49.2,33.1-125,57.7-176,16.4-16.3-14.4-24-34.7-24-57.4v-148c0-4.7,3.8-8.5,8.5-8.5h39.8c4.7,0,8.5,3.8,8.5,8.5v120.4c0,21.4,3.1,44.1,24.3,52.5,40.1,14.1,88.3-11.1,119-37.9"/>
  <path class="st4" d="M1260.2,824.8c-4.7,0-8.5-3.8-8.5-8.5v-119.7c0-8.5-.7-16.3-2-23.2s-3.9-12.9-7.6-17.8c-3.7-4.9-8.8-8.8-15.4-11.5s-15.1-4.1-25.5-4.1-16.2,1.1-24.9,3.4c-8.7,2.3-17.3,5.3-25.8,9.1-8.5,3.8-16.7,8.2-24.4,13.2-6.5,4.2-12.4,8.5-17.7,13-1.9,1.6-3,4-3,6.5v131.2c0,4.7-3.8,8.5-8.5,8.5h-40.9c-4.7,0-8.5-3.8-8.5-8.5v-211.8c0-4.7,3.8-8.5,8.5-8.5h40.9c4.7,0,8.5,3.8,8.5,8.5v8.1c0,6.5,7,10.6,12.6,7.4,3.4-2,7-3.9,10.6-5.8,8.2-4.4,16.9-8.3,26.2-11.9,9.2-3.5,19.1-6.4,29.5-8.7,10.4-2.2,21.4-3.3,32.9-3.3s27.4,1.9,38.8,5.6c11.4,3.7,21,9,28.9,15.8s14,15.1,18.2,24.8c4.2,9.7,6.3,20.6,6.3,32.5v147.4c0,4.7-3.8,8.5-8.5,8.5h-40.8,0Z"/>
  <g class="st3">
    <g>
      <path class="st2" d="M827.4,538.3c-57.9-150.9,169.1-296.3,267-150.9,22.8,37.2,15,78.7-1.5,118.1-9.1,18.7-3.1,35.3,18.4,36.1,68.4-4.1,104.1-78.8,112-141,6.8-31.5,19.2,27.6,19.1,35,29,143-206.1,254.6-276.8,109.1-15.8-34.4-13.4-70.1,3.6-104,12.4-20.9,7.4-36.7-19.6-38.6-68.2,3.4-98.8,72.1-108.6,133.2-1.6,12.3-7.6,18.2-13.1,4.3l-.6-1.4h0Z"/>
      <path class="st2" d="M1085.4,678.2c-154.6,47.2-283.8-189.4-131.9-276.9,38.7-20.1,79.6-9.5,117.8,9.7,18,10.4,35,5.5,37.3-15.9.7-68.5-71.3-109.3-132.8-121.6-31-8.9,28.9-17.2,36.3-16.6,144.7-19,239.6,223.3,89.5,283.8-35.4,13.4-70.8,8.4-103.5-10.8-20-13.8-36-9.9-39.9,16.8-1.4,68.2,65.1,103.6,125.3,117.6,12.1,2.4,17.6,8.8,3.4,13.4l-1.5.5h0Z"/>
      <rect class="st1" x="1011.6" y="420.5" width="26.5" height="34.5" rx="10.6" ry="10.6" transform="translate(-44.6 124.4) rotate(-6.8)"/>
      <rect class="st1" x="1057.5" y="415" width="26.5" height="34.5" rx="11" ry="11" transform="translate(-43.7 129.8) rotate(-6.8)"/>
      <polygon class="st4" points="910.2 365.2 897.1 350.1 878 344.4 893.1 331.3 898.8 312.1 911.8 327.3 931 333 915.9 346 910.2 365.2"/>
      <polygon class="st4" points="1202.8 588.3 1189.8 573.2 1170.6 567.5 1185.7 554.4 1191.4 535.2 1204.5 550.4 1223.6 556 1208.5 569.1 1202.8 588.3"/>
    </g>
  </g>
</svg>