<?xml version="1.0" encoding="UTF-8"?><svg id="Calque_2" xmlns="http://www.w3.org/2000/svg" xmlns:xlink="http://www.w3.org/1999/xlink" viewBox="0 0 116.94 116.94"><defs><style>.cls-1,.cls-2,.cls-3{fill:none;}.cls-4{fill:#4a37f6;}.cls-2{stroke:#4a37f6;stroke-linecap:round;stroke-width:2.09px;}.cls-2,.cls-3{stroke-miterlimit:10;}.cls-5{fill:#e2ee4c;}.cls-6{clip-path:url(#clippath);}.cls-3{stroke:#ff00e2;}.cls-7{fill:#2001b0;}.cls-8{fill:#ececec;}</style><clipPath id="clippath"><path class="cls-1" d="M33.97,52.1v27.84h49.65v-27.84h-49.65ZM75.39,53.84c0,.83-.11,1.59-.26,2.31-.25-.01-.49-.04-.75-.04-4.02,0-9.52,1.14-15.09,3.12-4.26,1.51-8.5,3.51-12.09,5.67-.66-.71-1.29-1.49-1.86-2.38,0,0-.01-.02-.02-.02,3.8-2.32,8.25-4.42,12.97-6.1,6-2.13,11.68-3.31,16-3.31.4,0,.78.01,1.15.03-.01.24-.01.48-.04.71h0Z"/></clipPath></defs><g id="ICONES"><circle class="cls-4" cx="58.47" cy="58.47" r="58.47"/><path class="cls-3" d="M81.12,58.08c0,4.53-9.98,11.76-22.31,16.15-12.33,4.39-22.33,4.27-22.34-.26,0-4.53,9.98-11.76,22.31-16.15,12.33-4.39,22.33-4.27,22.34.26Z"/><path class="cls-8" d="M55.86,80.71c-1.29,0-2.33-1.05-2.33-2.33v-5.23c0-2.81-1.83-4.55-3.94-6.56-1.33-1.27-2.7-2.58-3.83-4.33-.13-.2-.27-.41-.42-.64-1.14-1.7-2.87-4.26-2.87-7.78-.06-.6-.08-1.15-.08-1.66,0-8.99,7.31-16.3,16.3-16.3s16.3,7.31,16.3,16.3c0,.52-.03,1.06-.08,1.61,0,3.57-1.73,6.13-2.87,7.83-.15.23-.29.44-.42.63-1.13,1.75-2.5,3.06-3.83,4.33-2.11,2.02-3.94,3.76-3.94,6.56v5.23c0,1.29-1.05,2.33-2.33,2.33h-2.82s-2.82,0-2.82,0Z"/><path class="cls-7" d="M58.67,36.37c8.71,0,15.8,7.09,15.8,15.8,0,.5-.03,1.03-.08,1.56l-.11,1.1h.05c-.29,2.86-1.74,5.02-2.74,6.5-.16.23-.3.45-.43.65-1.1,1.7-2.45,2.99-3.76,4.24-2.11,2.01-4.1,3.91-4.1,6.93v5.23c0,1.01-.82,1.83-1.83,1.83h-2.82s-2.82,0-2.82,0c-1.01,0-1.83-.82-1.83-1.83v-5.23c0-3.02-1.99-4.92-4.1-6.93-1.31-1.25-2.66-2.54-3.76-4.24-.13-.2-.27-.41-.43-.65-1-1.48-2.45-3.64-2.74-6.5h.05l-.11-1.1c-.05-.54-.08-1.06-.08-1.56,0-8.71,7.09-15.8,15.8-15.8M58.67,35.37c-9.28,0-16.8,7.52-16.8,16.8,0,.56.03,1.12.08,1.66h0c0,4.15,2.28,6.99,3.37,8.69,2.97,4.6,7.69,6.36,7.69,10.62v5.23c0,1.57,1.27,2.83,2.83,2.83h2.82s2.82,0,2.82,0c1.57,0,2.83-1.27,2.83-2.83v-5.23c0-4.26,4.72-6.02,7.69-10.62,1.1-1.7,3.37-4.54,3.37-8.69h0c.05-.55.08-1.1.08-1.66,0-9.28-7.52-16.8-16.8-16.8h0Z"/><g class="cls-6"><path class="cls-3" d="M81.12,58.08c0,4.53-9.98,11.76-22.31,16.15-12.33,4.39-22.33,4.27-22.34-.26,0-4.53,9.98-11.76,22.31-16.15,12.33-4.39,22.33-4.27,22.34.26Z"/></g><circle class="cls-5" cx="37.87" cy="75.63" r="2.57"/><line class="cls-8" x1="24.99" y1="58.52" x2="31.01" y2="58.03"/><path class="cls-5" d="M24.99,59.9c-.71,0-1.31-.54-1.37-1.26-.06-.76.5-1.42,1.26-1.48l6.01-.49c.75-.08,1.42.5,1.48,1.26.06.76-.5,1.42-1.26,1.48l-6.01.49s-.08,0-.11,0Z"/><line class="cls-8" x1="30.17" y1="36.79" x2="35.3" y2="39.96"/><path class="cls-5" d="M35.3,41.34c-.25,0-.5-.07-.72-.21l-5.13-3.17c-.65-.4-.85-1.25-.45-1.89.4-.65,1.25-.85,1.89-.45l5.13,3.17c.65.4.85,1.25.45,1.89-.26.42-.71.65-1.17.65Z"/><line class="cls-8" x1="47.41" y1="22.61" x2="49.48" y2="28.28"/><path class="cls-5" d="M49.48,29.65c-.56,0-1.09-.35-1.29-.9l-2.08-5.67c-.26-.71.11-1.5.82-1.77.71-.26,1.51.11,1.77.82l2.08,5.67c.26.71-.11,1.5-.82,1.77-.16.06-.32.08-.47.08Z"/><line class="cls-8" x1="69.93" y1="22.61" x2="67.86" y2="28.28"/><path class="cls-5" d="M67.86,29.65c-.16,0-.32-.03-.47-.08-.71-.26-1.08-1.05-.82-1.77l2.07-5.67c.26-.71,1.05-1.08,1.77-.82.71.26,1.08,1.05.82,1.77l-2.07,5.67c-.2.56-.73.9-1.29.9Z"/><line class="cls-8" x1="87.18" y1="36.79" x2="82.04" y2="39.96"/><path class="cls-5" d="M82.04,41.34c-.46,0-.91-.23-1.17-.65-.4-.65-.2-1.5.45-1.89l5.13-3.17c.65-.4,1.5-.2,1.89.45.4.65.2,1.5-.45,1.89l-5.13,3.17c-.23.14-.48.21-.72.21Z"/><line class="cls-8" x1="92.35" y1="58.52" x2="86.34" y2="58.03"/><path class="cls-5" d="M92.35,59.89s-.08,0-.11,0l-6.01-.49c-.76-.06-1.32-.73-1.26-1.48.06-.76.73-1.34,1.48-1.26l6.01.49c.76.06,1.32.73,1.26,1.48-.06.72-.66,1.26-1.37,1.26Z"/><path class="cls-2" d="M54.72,59.28c-1.08-1.04-1.76-2.5-1.76-4.12,0-3.15,2.55-5.71,5.71-5.71s5.71,2.55,5.71,5.71c0,1.66-.65,3.06-1.78,4.1"/><path class="cls-5" d="M53.67,82.47h10.26c.31,0,.56.25.56.56v6.72c0,1.07-.87,1.94-1.94,1.94h-7.51c-1.07,0-1.94-.87-1.94-1.94v-6.72c0-.31.25-.56.56-.56Z"/></g></svg>