<?xml version="1.0" encoding="UTF-8"?>
<svg id="Calque_1" xmlns="http://www.w3.org/2000/svg" xmlns:xlink="http://www.w3.org/1999/xlink" version="1.1" viewBox="0 0 1080 1080">
  <!-- Generator: Adobe Illustrator 29.1.0, SVG Export Plug-In . SVG Version: 2.1.0 Build 142)  -->
  <defs>
    <style>
      .st0 {
        fill: none;
      }

      .st1 {
        fill: #4a37f6;
      }

      .st2 {
        fill: #e2ee4c;
      }

      .st3 {
        clip-path: url(#clippath);
      }

      .st4 {
        fill: #ececec;
      }
    </style>
    <clipPath id="clippath">
      <path class="st0" d="M154.1,167.5v745c0,8.2,6.6,14.8,14.8,14.8h742.3c8.2,0,14.8-6.6,14.8-14.8V167.5c0-8.2-6.6-14.8-14.8-14.8H168.9c-8.2,0-14.8,6.6-14.8,14.8h0Z"/>
    </clipPath>
  </defs>
  <rect class="st1" width="1080" height="1080"/>
  <g class="st3">
    <g>
      <path class="st2" d="M183.3,659.2C82.1,395.4,478.8,141.3,650,395.4c39.8,65.1,26.3,137.6-2.6,206.5-16,32.7-5.4,61.6,32.2,63.1,119.5-7.1,181.9-137.6,195.8-246.4,11.8-55.1,33.5,48.3,33.4,61.2,50.7,249.9-360.1,444.9-483.7,190.7-27.7-60.1-23.4-122.5,6.2-181.7,21.7-36.5,12.9-64.1-34.2-67.5-119.1,5.9-172.6,126.1-189.8,232.8-2.7,21.5-13.3,31.8-22.9,7.5l-1-2.5h0Z"/>
      <path class="st2" d="M634.1,903.6c-270.2,82.5-496-330.9-230.5-484,67.7-35.2,139.1-16.6,205.8,17,31.5,18.2,61.1,9.7,65.2-27.7,1.3-119.7-124.6-191-232.1-212.5-54.1-15.6,50.5-30.1,63.4-29,252.8-33.1,418.6,390.3,156.5,495.9-61.8,23.4-123.8,14.8-180.8-18.9-34.9-24.2-63-17.4-69.7,29.4-2.4,119.2,113.7,181,219,205.6,21.2,4.2,30.8,15.5,5.9,23.4l-2.6.8h0Z"/>
      <rect class="st1" x="505.2" y="453.3" width="46.3" height="60.4" rx="10.6" ry="10.6" transform="translate(-53.5 66) rotate(-6.8)"/>
      <rect class="st1" x="585.3" y="443.8" width="46.3" height="60.4" rx="11" ry="11" transform="translate(-51.8 75.4) rotate(-6.8)"/>
      <polygon class="st4" points="328 356.7 305.1 330.3 271.6 320.4 298 297.5 308 264 330.8 290.4 364.3 300.3 337.9 323.2 328 356.7"/>
      <polygon class="st4" points="839.3 746.6 816.5 720.2 783 710.2 809.4 687.4 819.3 653.9 842.2 680.3 875.7 690.2 849.2 713.1 839.3 746.6"/>
    </g>
  </g>
</svg>