<?xml version="1.0" encoding="UTF-8"?><svg id="Calque_2" xmlns="http://www.w3.org/2000/svg" viewBox="0 0 111.52 111.52"><defs><style>.cls-1,.cls-2{fill:#4a37f6;}.cls-3{fill:#e2ee4c;}.cls-3,.cls-4,.cls-2,.cls-5,.cls-6{stroke-miterlimit:10;}.cls-3,.cls-6{stroke:#4a37f6;}.cls-4{fill:#ff00e2;stroke:#ff00e2;}.cls-2,.cls-5{stroke:#2001b0;}.cls-2,.cls-6{stroke-linecap:round;}.cls-5{fill:#ececec;}.cls-6{fill:none;stroke-width:.75px;}</style></defs><g id="ICONES"><circle class="cls-1" cx="55.76" cy="55.76" r="55.76"/><path class="cls-4" d="M75.7,43.13c-.37-.26-24.07-16.8-27.33-16.25-3.27.56-18.62,23.74-18.86,24.1h0s1.71-.29,1.71-.29l19.16,13.48,11.32-1.93,12.28-18.83,1.71-.29h0Z"/><polygon class="cls-3" points="75.46 69.54 40.34 75.52 32.99 40.55 68.11 34.57 75.46 69.54"/><path class="cls-5" d="M77.25,44.84l5.98,28.45c.26,1.24-.66,2.46-2.04,2.69l-43.47,7.4c-1.39.24-2.73-.59-2.99-1.83l-5.98-28.45c-.17-.79.15-1.57.76-2.1l1.72-.29,19.16,13.48,11.32-1.93,12.28-18.83,1.71-.29c.78.29,1.39.91,1.55,1.7Z"/><line class="cls-2" x1="50.38" y1="64.18" x2="47.4" y2="68.12"/><line class="cls-2" x1="61.59" y1="62.27" x2="65.97" y2="64.96"/><path class="cls-1" d="M43.74,49.22l-1.88-.96c-.17-.09-.38-.05-.52.08l-1.5,1.5c-.29.29-.79.04-.73-.37l.33-2.09c.03-.19-.07-.38-.24-.47l-1.88-.96c-.37-.19-.28-.74.13-.81l2.09-.33c.19-.03.34-.18.37-.37l.33-2.09c.06-.41.62-.5.81-.13l.96,1.88c.09.17.28.27.47.24l2.09-.33c.41-.06.66.43.37.73l-1.5,1.5c-.14.14-.17.35-.08.52l.96,1.88c.19.37-.21.77-.58.58Z"/><line class="cls-6" x1="48.42" y1="46.56" x2="66.61" y2="43.46"/><line class="cls-6" x1="48.97" y1="49.17" x2="67.16" y2="46.07"/><line class="cls-6" x1="49.58" y1="52.08" x2="67.77" y2="48.98"/></g></svg>