<?xml version="1.0" encoding="UTF-8"?><svg id="Calque_2" xmlns="http://www.w3.org/2000/svg" viewBox="0 0 116.94 116.94"><defs><style>.cls-1{fill:#4a37f6;}.cls-2{fill:#ff00e2;stroke:#2001b0;stroke-miterlimit:10;}.cls-3{fill:#e2ee4c;}.cls-4{fill:#2001b0;}.cls-5{fill:#ececec;}</style></defs><g id="ICONES"><circle class="cls-1" cx="58.47" cy="58.47" r="58.47"/><path class="cls-3" d="M39.13,74.96c-8.99,0-16.29-7.31-16.29-16.29s7.31-16.3,16.29-16.3,16.29,7.31,16.29,16.3-7.31,16.29-16.29,16.29Z"/><path class="cls-4" d="M39.13,42.87c8.71,0,15.8,7.09,15.8,15.8s-7.09,15.8-15.8,15.8-15.8-7.09-15.8-15.8,7.09-15.8,15.8-15.8M39.13,41.87c-9.28,0-16.8,7.52-16.8,16.8s7.52,16.8,16.8,16.8,16.8-7.52,16.8-16.8-7.52-16.8-16.8-16.8h0Z"/><circle class="cls-2" cx="57.7" cy="58.66" r="16.8"/><path class="cls-5" d="M77.46,74.96c-8.99,0-16.29-7.31-16.29-16.29s7.31-16.3,16.29-16.3,16.29,7.31,16.29,16.3-7.31,16.29-16.29,16.29Z"/><path class="cls-4" d="M77.46,42.87c8.71,0,15.8,7.09,15.8,15.8s-7.09,15.8-15.8,15.8-15.8-7.09-15.8-15.8,7.09-15.8,15.8-15.8M77.46,41.87c-9.28,0-16.8,7.52-16.8,16.8s7.52,16.8,16.8,16.8,16.8-7.52,16.8-16.8-7.52-16.8-16.8-16.8h0Z"/><rect class="cls-4" x="46.07" y="52.68" width="1.68" height="4.41" rx=".84" ry=".84" transform="translate(11.79 -8.19) rotate(11.41)"/><rect class="cls-4" x="50.65" y="53.61" width="1.68" height="4.41" rx=".84" ry=".84" transform="translate(12.06 -9.08) rotate(11.41)"/><rect class="cls-4" x="27.72" y="52.68" width="1.68" height="4.41" rx=".84" ry=".84" transform="translate(11.42 -4.57) rotate(11.41)"/><rect class="cls-4" x="32.3" y="53.61" width="1.68" height="4.41" rx=".84" ry=".84" transform="translate(11.7 -5.45) rotate(11.41)"/><rect class="cls-4" x="67.06" y="52.68" width="1.68" height="4.41" rx=".84" ry=".84" transform="translate(12.2 -12.35) rotate(11.41)"/><rect class="cls-4" x="71.64" y="53.61" width="1.68" height="4.41" rx=".84" ry=".84" transform="translate(12.47 -13.23) rotate(11.41)"/></g></svg>