<?xml version="1.0" encoding="UTF-8"?><svg id="Calque_2" xmlns="http://www.w3.org/2000/svg" xmlns:xlink="http://www.w3.org/1999/xlink" viewBox="0 0 111.52 111.52"><defs><style>.cls-1,.cls-2,.cls-3,.cls-4{fill:none;}.cls-5{fill:#4a37f6;}.cls-6{fill:#ff00e2;}.cls-2{stroke:#4a37f6;}.cls-2,.cls-7,.cls-3,.cls-4{stroke-miterlimit:10;}.cls-8{fill:#e2ee4c;}.cls-7{fill:#ececec;stroke:#2001b0;}.cls-3{stroke-width:.5px;}.cls-3,.cls-4{stroke:#ff00e2;}.cls-9{clip-path:url(#clippath);}</style><clipPath id="clippath"><path class="cls-1" d="M30.52,25.57v60.38h54.82V25.57H30.52ZM59.33,75.09c-3.75-3.16-7.46-6.81-11.03-10.87-2.37-2.69-4.58-5.47-6.57-8.24h0c-3.31-4.6-5.97-9.14-7.74-13.19-.78-1.78-1.37-3.45-1.78-4.99.8-.67,1.69-1.24,2.64-1.7l.04.04c.36,1.63.99,3.46,1.85,5.44,2.75,6.31,7.66,13.64,13.81,20.65,3.82,4.35,8,8.38,12.08,11.66l.29.96-2.36.16-1.24.08Z"/></clipPath></defs><g id="ICONES"><circle class="cls-5" cx="55.76" cy="55.76" r="55.76"/><rect class="cls-8" x="26.31" y="36.88" width="58.46" height="40.4" rx="12" ry="12" transform="translate(-3.63 3.77) rotate(-3.77)"/><ellipse class="cls-4" cx="57.93" cy="55.76" rx="11.32" ry="35.47" transform="translate(-22.39 52.09) rotate(-41.29)"/><rect class="cls-7" x="28.7" y="34.24" width="58.46" height="40.4" rx="12" ry="12" transform="translate(-3.45 3.92) rotate(-3.77)"/><rect class="cls-5" x="53.54" y="44.68" width="20.85" height="4.29" rx="2.14" ry="2.14" transform="translate(-2.94 4.3) rotate(-3.77)"/><rect class="cls-3" x="54.02" y="52.2" width="10.88" height="4.29" rx="2.14" ry="2.14" transform="translate(-3.44 4.03) rotate(-3.77)"/><rect class="cls-3" x="66.26" y="51.3" width="13.51" height="4.29" rx="2.14" ry="2.14" transform="translate(-3.35 4.91) rotate(-3.77)"/><rect class="cls-3" x="54.41" y="57.82" width="25.78" height="4.29" rx="2.14" ry="2.14" transform="translate(-3.8 4.55) rotate(-3.77)"/><g class="cls-9"><ellipse class="cls-4" cx="57.93" cy="55.76" rx="11.32" ry="35.47" transform="translate(-22.39 52.09) rotate(-41.29)"/></g><circle class="cls-2" cx="43.05" cy="48.01" r="3.96"/><path class="cls-6" d="M49.28,66.91l-9.92.65c-.57.04-1.08-.4-1.11-.98l-.48-7.28c-.21-3.19,2.23-5.98,5.42-6.19l.4-.03c3.19-.21,5.98,2.23,6.19,5.42l.48,7.28c.04.57-.4,1.08-.98,1.11Z"/></g></svg>