<?xml version="1.0" encoding="UTF-8"?><svg id="Calque_2" xmlns="http://www.w3.org/2000/svg" viewBox="0 0 111.52 111.52"><defs><style>.cls-1{fill:#4a37f6;}.cls-2{fill:#ff00e2;stroke:#ff00e2;stroke-width:.87px;}.cls-2,.cls-3,.cls-4{stroke-miterlimit:10;}.cls-3{fill:none;stroke:#e2ee4c;stroke-linecap:round;stroke-width:3.48px;}.cls-4{fill:#ececec;stroke:#2001b0;}</style></defs><g id="ICONES"><circle class="cls-1" cx="55.76" cy="55.76" r="55.76"/><path class="cls-4" d="M83.82,30.43c-2.85-2.85-21.64-1.49-28.74,5.62-.18.18-.34.35-.51.53-.1.09-.2.17-.3.27l-12.24,12.24c-2.46,2.46-2.46,6.49,0,8.95l14.18,14.18c2.46,2.46,6.49,2.46,8.95,0l12.24-12.24c.1-.1.18-.2.27-.3.18-.16.35-.33.53-.51,7.1-7.1,8.47-25.89,5.62-28.74Z"/><circle class="cls-1" cx="70.03" cy="44.22" r="5.68"/><circle class="cls-1" cx="61.53" cy="52.72" r="2.42"/><path class="cls-2" d="M35.74,55.96c-4.39,1.06-5.48,2.79-7.35.92-2.47-2.47,2.85-7.06,3.47-7.66.9-.86,3.56-3.2,3.56-3.2,3.59-3.59,9.46-3.59,13.05,0h0c.61.61.61,1.62,0,2.23,0,0-4.58,4.58-6.58,6.58s-4.3.69-6.16,1.14Z"/><path class="cls-2" d="M58.72,78.08c-1.06,4.39-2.79,5.48-.92,7.35,2.47,2.47,7.06-2.85,7.66-3.47.86-.9,3.2-3.56,3.2-3.56,3.59-3.59,3.59-9.46,0-13.05h0c-.61-.61-1.62-.61-2.23,0,0,0-4.58,4.58-6.58,6.58s-.69,4.3-1.14,6.16Z"/><line class="cls-3" x1="30.43" y1="71.33" x2="39.5" y2="62.26"/><line class="cls-3" x1="42.24" y1="83.14" x2="51.31" y2="74.07"/><line class="cls-3" x1="32.21" y1="81.13" x2="45.17" y2="68.16"/></g></svg>