<?xml version="1.0" encoding="UTF-8"?><svg id="Calque_2" xmlns="http://www.w3.org/2000/svg" viewBox="0 0 111.52 111.52"><defs><style>.cls-1{fill:#4a37f6;}.cls-2{fill:#ff00e2;}.cls-3{fill:#e2ee4c;}.cls-3,.cls-4{stroke:#2001b0;stroke-miterlimit:10;stroke-width:.98px;}.cls-4{fill:none;}.cls-5{fill:#ececec;}</style></defs><g id="ICONES"><circle class="cls-1" cx="55.76" cy="55.76" r="55.76"/><path class="cls-5" d="M66.83,42.17c-2.62-11.16-13.87-20.18-25.14-20.13-4.93.02-9.05,1.77-11.9,4.68,0,0,0,.01-.01.02,0,0-.01.01-.02.02,0,0,0,.01-.01.02,0,0,0,.01-.02.02,0,0,0,.01-.01.02,0,0-.01.01-.02.02,0,0,0,.01-.01.02,0,0,0,.01-.01.02,0,0-.01.01-.02.02,0,0,0,.01-.01.02,0,0-.01.01-.02.02,0,0,0,.01-.01.02s0,.01-.02.02c0,0,0,.01-.01.02,0,0-.01.01-.02.02,0,0,0,.01-.01.02,0,0-.01.01-.02.02,0,0,0,.01-.01.02s0,.01-.02.02c0,0,0,.01-.01.02,0,0-.01.01-.02.02,0,0,0,.01-.01.02,0,0-.01.01-.02.02,0,0,0,.01-.01.02,0,0-.01.01-.02.02,0,0,0,.01-.01.02,0,0,0,.01-.02.02,0,0,0,.01-.02.02s0,.01-.01.02c0,0,0,.01-.02.02,0,0,0,.01-.01.02,0,0-.01.01-.02.02,0,0,0,.01-.01.02,0,0-.01.01-.02.02,0,0,0,.01-.01.02,0,0,0,.01-.02.02,0,0,0,.01-.01.02,0,0-.01.01-.02.02,0,0,0,.01-.01.02,0,0-.01.01-.02.02,0,0,0,.01-.01.02,0,0,0,.01-.02.02,0,0,0,.01-.01.02,0,0-.01.01-.02.02,0,0,0,.01-.01.02,0,0-.01.01-.02.02,0,0,0,.01-.01.02s0,.01-.02.02,0,.01-.02.02c0,0,0,.01-.01.02s0,.01-.02.02c0,0,0,.01-.01.02,0,0-.01.01-.02.02,0,0,0,.01-.01.02,0,0-.01.01-.02.02,0,0,0,.01-.01.02,0,0-.01.01-.02.02,0,0,0,.01-.01.02,0,0,0,.01-.02.02,0,0,0,.01-.01.02,0,0-.01.01-.02.02,0,0,0,.01-.01.02,0,0-.01.01-.02.02,0,0,0,.01-.01.02,0,0,0,.01-.02.02,0,0,0,.01-.01.02,0,0-.01.01-.02.02,0,0,0,.01-.01.02,0,0,0,.01-.01.02,0,0-.01.01-.02.02,0,0,0,.01-.01.02,0,0-.01.01-.02.02,0,0,0,.01-.01.02,0,0,0,.01-.02.02,0,0,0,.01-.01.02,0,0-.01.01-.02.02,0,0,0,.01-.01.02,0,0-.01.01-.02.02,0,0,0,.01-.01.02s0,.01-.02.02c0,0,0,.01-.01.02,0,0-.01.01-.02.02,0,0,0,.01-.01.02,0,0-.01.01-.02.02,0,0,0,.01-.01.02,0,0,0,.01-.02.02,0,0,0,.01-.01.02,0,0-.01.01-.02.02,0,0,0,.01-.01.02,0,0,0,.01-.01.02,0,0,0,.01-.02.02,0,0,0,.01-.01.02,0,0-.01.01-.02.02,0,0,0,.01-.01.02,0,0-.01.01-.02.02,0,0,0,.01-.01.02,0,0,0,.01-.02.02,0,0,0,.01-.01.02,0,0-.01.01-.02.02,0,0,0,.01-.01.02,0,0-.01.01-.02.02,0,0,0,.01-.01.02,0,0,0,.01-.02.02,0,0,0,.01-.01.02,0,0-.01.01-.02.02,0,0,0,.01-.01.02,0,0-.01.01-.02.02s-.01.01-.02.02c0,0,0,.01-.01.02,0,0-.01.01-.02.02,0,0,0,.01-.01.02s0,.01-.02.02c0,0,0,.01-.01.02,0,0-.01.01-.02.02,0,0,0,.01-.01.02,0,0-.01.01-.02.02,0,0,0,.01-.01.02s0,.01-.02.02c0,0,0,.01-.01.02,0,0-.01.01-.02.02,0,0,0,.01-.01.02,0,0-.01.01-.02.02,0,0,0,.01-.01.02,0,0-.01.01-.02.02,0,0,0,.01-.01.02,0,0,0,.01-.02.02,0,0,0,.01-.01.02,0,0-.01.01-.02.02,0,0,0,.01-.01.02,0,0,0,.01-.01.02,0,0-.01.01-.02.02,0,0,0,.01-.01.02,0,0-.01.01-.02.02,0,0,0,.01-.01.02,0,0,0,.01-.02.02,0,0,0,.01-.01.02,0,0-.01.01-.02.02,0,0,0,.01-.01.02,0,0-.01.01-.02.02,0,0,0,.01-.01.02,0,0,0,.01-.02.02,0,0,0,.01-.01.02,0,0-.01.01-.02.02,0,0,0,.01-.01.02,0,0-.01.01-.02.02,0,0,0,.01-.01.02,0,0,0,.01-.02.02,0,0,0,.01-.01.02,0,0-.01.01-.02.02,0,0,0,.01-.01.02,0,0,0,.01-.01.02,0,0-.01.01-.02.02,0,0,0,.01-.01.02,0,0-.01.01-.02.02,0,0,0,.01-.01.02,0,0-.01.01-.02.02,0,0,0,.01-.01.02,0,0,0,.01-.02.02,0,0,0,.01-.01.02,0,0-.01.01-.02.02,0,0,0,.01-.01.02,0,0-.01.01-.02.02,0,0,0,.01-.01.02,0,0,0,.01-.02.02,0,0,0,.01-.01.02,0,0-.01.01-.02.02,0,0,0,.01-.01.02,0,0-.01.01-.02.02s-.01.01-.02.02c0,0,0,.01-.01.02,0,0-.01.01-.02.02,0,0,0,.01-.01.02,0,0,0,.01-.02.02,0,0,0,.01-.01.02,0,0-.01.01-.02.02,0,0,0,.01-.01.02,0,0-.01.01-.02.02,0,0,0,.01-.01.02s0,.01-.02.02c0,0,0,.01-.01.02,0,0-.01.01-.02.02,0,0,0,.01-.01.02,0,0-.01.01-.02.02,0,0,0,.01-.01.02,0,0,0,.01-.02.02,0,0,0,.01-.01.02,0,0-.01.01-.02.02,0,0,0,.01-.01.02,0,0-.01.01-.02.02,0,0,0,.01-.01.02,0,0,0,.01-.01.02,0,0-.01.01-.02.02,0,0,0,.01-.01.02,0,0-.01.01-.02.02,0,0,0,.01-.01.02,0,0,0,.01-.02.02,0,0,0,.01-.01.02,0,0-.01.01-.02.02,0,0,0,.01-.01.02,0,0-.01.01-.02.02-3.67,3.72-5.24,9.35-3.77,15.63,2.62,11.16,13.87,20.18,25.14,20.13,4.93-.02,9.05-1.77,11.9-4.68,0,0,.01-.01.02-.02,0,0,0-.01.01-.02,0,0,.01-.01.02-.02,0,0,0-.01.01-.02s0-.01.02-.02c0,0,0-.01.01-.02,0,0,.01-.01.02-.02,0,0,0-.01.01-.02,0,0,.01-.01.02-.02,0,0,0-.01.01-.02s0-.01.02-.02c0,0,0-.01.01-.02,0,0,0-.01.02-.02,0,0,0-.01.01-.02,0,0,.01-.01.02-.02,0,0,0-.01.01-.02,0,0,.01-.01.02-.02,0,0,0-.01.01-.02,0,0,0-.01.02-.02,0,0,0-.01.01-.02,0,0,.01-.01.02-.02,0,0,0-.01.01-.02,0,0,0-.01.01-.02,0,0,.01-.01.02-.02,0,0,0-.01.01-.02,0,0,.01-.01.02-.02,0,0,0-.01.01-.02,0,0,0-.01.02-.02,0,0,0-.01.01-.02,0,0,.01-.01.02-.02,0,0,0-.01.01-.02,0,0,.01-.01.02-.02,0,0,0-.01.01-.02,0,0,0-.01.02-.02,0,0,0-.01.01-.02,0,0,.01-.01.02-.02,0,0,0-.01.01-.02,0,0,.01-.01.02-.02,0,0,0-.01.01-.02,0,0,0-.01.02-.02s0-.01.02-.02c0,0,0-.01.01-.02s0-.01.02-.02c0,0,0-.01.01-.02,0,0,0-.01.02-.02,0,0,0-.01.01-.02,0,0,.01-.01.02-.02,0,0,0-.01.01-.02,0,0,.01-.01.02-.02,0,0,0-.01.01-.02,0,0,0-.01.02-.02,0,0,0-.01.01-.02,0,0,.01-.01.02-.02,0,0,0-.01.01-.02,0,0,.01-.01.02-.02,0,0,0-.01.01-.02,0,0,0-.01.02-.02,0,0,0-.01.01-.02,0,0,.01-.01.02-.02,0,0,0-.01.01-.02,0,0,.01-.01.02-.02s.01-.01.02-.02c0,0,0-.01.01-.02,0,0,.01-.01.02-.02,0,0,0-.01.01-.02,0,0,0-.01.02-.02,0,0,0-.01.01-.02,0,0,.01-.01.02-.02,0,0,0-.01.01-.02,0,0,.01-.01.02-.02,0,0,0-.01.01-.02s0-.01.02-.02c0,0,0-.01.01-.02,0,0,.01-.01.02-.02,0,0,0-.01.01-.02,0,0,.01-.01.02-.02,0,0,0-.01.01-.02,0,0,0-.01.02-.02s0-.01.01-.02c0,0,0-.01.02-.02,0,0,0-.01.02-.02,0,0,0-.01.01-.02,0,0,0-.01.02-.02,0,0,0-.01.01-.02,0,0,.01-.01.02-.02,0,0,0-.01.01-.02,0,0,.01-.01.02-.02,0,0,0-.01.01-.02,0,0,0-.01.02-.02,0,0,0-.01.01-.02,0,0,.01-.01.02-.02,0,0,0-.01.01-.02,0,0,.01-.01.02-.02,0,0,0-.01.01-.02,0,0,0-.01.02-.02,0,0,0-.01.01-.02,0,0,.01-.01.02-.02,0,0,0-.01.01-.02,0,0,.01-.01.02-.02,0,0,0-.01.01-.02s0-.01.02-.02,0-.01.02-.02c0,0,0-.01.01-.02s0-.01.02-.02c0,0,0-.01.01-.02,0,0,.01-.01.02-.02,0,0,0-.01.01-.02,0,0,.01-.01.02-.02,0,0,0-.01.01-.02s0-.01.02-.02c0,0,0-.01.01-.02,0,0,0-.01.02-.02,0,0,0-.01.01-.02,0,0,.01-.01.02-.02,0,0,0-.01.01-.02,0,0,.01-.01.02-.02,0,0,0-.01.01-.02,0,0,0-.01.02-.02,0,0,0-.01.01-.02,0,0,.01-.01.02-.02,0,0,0-.01.01-.02,0,0,.01-.01.02-.02s.01-.01.02-.02c0,0,0-.01.01-.02,0,0,.01-.01.02-.02,0,0,0-.01.01-.02,0,0,0-.01.02-.02,0,0,0-.01.01-.02,0,0,.01-.01.02-.02,0,0,0-.01.01-.02,0,0,.01-.01.02-.02,0,0,0-.01.01-.02,0,0,0-.01.02-.02,0,0,0-.01.01-.02,0,0,.01-.01.02-.02,0,0,0-.01.01-.02,0,0,.01-.01.02-.02,0,0,0-.01.01-.02,0,0,0-.01.02-.02,0,0,0-.01.01-.02,0,0,.01-.01.02-.02,0,0,0-.01.01-.02,0,0,0-.01.01-.02,0,0,0-.01.02-.02,0,0,0-.01.01-.02,0,0,.01-.01.02-.02,0,0,0-.01.01-.02,0,0,.01-.01.02-.02,0,0,0-.01.01-.02,0,0,0-.01.02-.02,0,0,0-.01.01-.02,0,0,.01-.01.02-.02,0,0,0-.01.01-.02,0,0,.01-.01.02-.02,0,0,0-.01.01-.02,0,0,0-.01.02-.02,0,0,0-.01.01-.02,0,0,.01-.01.02-.02,0,0,0-.01.01-.02,0,0,.01-.01.02-.02,0,0,0-.01.01-.02,0,0,0-.01.02-.02,0,0,0-.01.02-.02s0-.01.01-.02c0,0,0-.01.02-.02,0,0,0-.01.01-.02,0,0,.01-.01.02-.02,0,0,0-.01.01-.02,0,0,.01-.01.02-.02,0,0,0-.01.01-.02s0-.01.02-.02c0,0,0-.01.01-.02,0,0,.01-.01.02-.02,0,0,0-.01.01-.02,0,0,.01-.01.02-.02,0,0,0-.01.01-.02s0-.01.02-.02c0,0,0-.01.01-.02,0,0,0-.01.02-.02,0,0,0-.01.01-.02,0,0,.01-.01.02-.02,0,0,0-.01.01-.02,0,0,0-.01.01-.02,0,0,.01-.01.02-.02,0,0,0-.01.01-.02,0,0,.01-.01.02-.02,0,0,0-.01.01-.02,0,0,0-.01.02-.02,0,0,0-.01.01-.02,0,0,.01-.01.02-.02,0,0,0-.01.01-.02,0,0,.01-.01.02-.02,0,0,0-.01.01-.02,0,0,0-.01.02-.02,0,0,0-.01.01-.02,0,0,.01-.01.02-.02,0,0,0-.01.01-.02,0,0,.01-.01.02-.02,0,0,0-.01.01-.02,0,0,0-.01.02-.02,3.67-3.72,5.24-9.35,3.77-15.63Z"/><path class="cls-3" d="M69.94,64.26l-5.8-5.81c5-3.66,7.35-9.94,5.59-17.07-2.78-11.25-14.71-20.33-26.65-20.28-11.94.04-19.37,9.2-16.6,20.44,2.78,11.25,14.71,20.33,26.65,20.28,2.32,0,4.46-.37,6.4-1.01l6.93,6.93c.48.48,1.11.72,1.74.72s1.26-.24,1.74-.72c.96-.96.96-2.52,0-3.48Z"/><path class="cls-5" d="M84.85,82.28l-.74.74c-1.43,1.43-3.76,1.43-5.18,0l-12.98-12.98c-.49-.49-.49-1.3,0-1.79l4.66-3.61c.49-.49,1.3-.49,1.79,0l12.45,12.45c1.43,1.43,1.43,3.76,0,5.18Z"/><path class="cls-1" d="M38.34,28.28c11.07-.04,22.13,8.38,24.7,18.8.41,1.67.56,3.27.51,4.81,1.89-2.82,2.56-6.48,1.57-10.49-2.19-8.85-11.58-16-20.97-15.96-3.78.01-6.96,1.2-9.3,3.17,1.11-.2,2.28-.33,3.5-.33Z"/><path class="cls-4" d="M65.12,41.4c2.19,8.85-3.66,16.05-13.06,16.09-9.4.03-18.79-7.11-20.97-15.96s3.66-16.05,13.06-16.09c9.4-.03,18.79,7.11,20.97,15.96Z"/><path class="cls-2" d="M54.57,46.27l-4.66.17-2.06,3.72c-.37.67-1.33.7-1.74.05l-2.65-4.19-5.13-.84c-.89-.15-1.16-1.3-.42-1.82l3.26-2.33-1.12-3.78c-.25-.84.62-1.58,1.41-1.2l4.74,2.31,4.77-1.82c.74-.28,1.5.35,1.36,1.13l-.73,4.04,3.55,2.75c.75.58.36,1.78-.58,1.81Z"/></g></svg>