<?xml version="1.0" encoding="UTF-8"?><svg id="Calque_2" xmlns="http://www.w3.org/2000/svg" viewBox="0 0 111.52 111.52"><defs><style>.cls-1{fill:#4a37f6;}.cls-2{stroke:#ff00e2;}.cls-2,.cls-3{fill:none;stroke-linecap:round;}.cls-2,.cls-3,.cls-4{stroke-miterlimit:10;}.cls-3{stroke:#e2ee4c;stroke-width:3px;}.cls-5{fill:#e2ee4c;}.cls-4{fill:#ececec;stroke:#2001b0;}</style></defs><g id="ICONES"><circle class="cls-1" cx="55.76" cy="55.76" r="55.76"/><path class="cls-5" d="M74.12,63.42l-7.19-3.69c-.21-.11-.44-.18-.68-.21l-8.02-1.01c-1.94-.24-3.29-2.05-2.98-3.97l1.29-7.98c.04-.24.03-.48-.01-.71l-1.52-7.94c-.37-1.92.93-3.76,2.86-4.06l7.99-1.24c.24-.04.46-.11.67-.23l7.08-3.9c1.71-.94,3.86-.28,4.74,1.47l3.65,7.21c.11.21.25.41.43.57l5.9,5.53c1.42,1.34,1.46,3.59.07,4.96l-5.73,5.7c-.17.17-.31.37-.41.58l-3.44,7.32c-.83,1.77-2.96,2.49-4.7,1.6Z"/><path class="cls-4" d="M76.64,60.82l-7.19-3.69c-.21-.11-.44-.18-.68-.21l-8.02-1.01c-1.94-.24-3.29-2.05-2.98-3.97l1.29-7.98c.04-.24.03-.48-.01-.71l-1.52-7.94c-.37-1.92.93-3.76,2.86-4.06l7.99-1.24c.24-.04.46-.11.67-.23l7.08-3.9c1.71-.94,3.86-.28,4.74,1.47l3.65,7.21c.11.21.25.41.43.57l5.9,5.53c1.42,1.34,1.46,3.59.07,4.96l-5.73,5.7c-.17.17-.31.37-.41.58l-3.44,7.32c-.83,1.77-2.96,2.49-4.7,1.6Z"/><line class="cls-3" x1="64.5" y1="66.07" x2="46.56" y2="87.26"/><line class="cls-3" x1="49.05" y1="48.09" x2="23.02" y2="55.42"/><rect class="cls-1" x="75.56" y="34.27" width="1.29" height="3.37" rx=".44" ry=".44" transform="translate(-6.16 18.2) rotate(-13.09)"/><rect class="cls-1" x="79.04" y="33.46" width="1.29" height="3.37" rx=".42" ry=".42" transform="translate(-5.89 18.96) rotate(-13.09)"/><line class="cls-2" x1="25.14" y1="68.63" x2="50.89" y2="56.1"/><line class="cls-2" x1="34.07" y1="80.01" x2="56.21" y2="63.49"/></g></svg>